<svg width="230" height="55" viewBox="0 0 230 55" fill="none" xmlns="http://www.w3.org/2000/svg">
<path d="M18.0145 11.0532C16.2347 4.52732 10.3073 0 3.54306 0H0H230H226.457C219.693 0 213.765 4.52732 211.985 11.0532L203.015 43.9468C201.235 50.4727 195.307 55 188.543 55H41.4569C34.6927 55 28.7653 50.4727 26.9855 43.9468L18.0145 11.0532Z" fill="#2C3D94"/>
<path d="M94.8732 39.7729C94.8732 40.1835 94.7768 40.5717 94.6039 40.9155C94.1823 41.7623 93.3057 42.3443 92.2923 42.3443C91.6961 42.3443 91.1464 42.142 90.7094 41.8026C88.1405 43.2032 85.1949 43.9994 82.066 43.9994C77.7035 43.9994 73.6972 42.4506 70.5717 39.8757C69.6856 39.1463 68.8701 38.3346 68.1388 37.4517C65.5537 34.3378 64 30.3461 64 25.9995C64 22.0027 65.3145 18.305 67.5358 15.3152C67.8438 14.9004 68.4529 14.8601 68.8193 15.2252L68.8305 15.2364C69.1282 15.533 69.1634 16.0018 68.914 16.3395C66.9078 19.0429 65.7206 22.3858 65.7206 25.9995C65.7206 29.8738 67.085 33.4369 69.3605 36.2346C70.0848 37.1243 70.9004 37.9377 71.7933 38.6586C74.6022 40.9257 78.1784 42.2852 82.066 42.2852C84.8542 42.2852 87.4807 41.5866 89.7794 40.3549C89.7347 40.168 89.7114 39.9735 89.7114 39.7729C89.7114 38.7632 90.2956 37.8897 91.1455 37.4697C91.4905 37.2975 91.8802 37.2015 92.2923 37.2015C92.762 37.2015 93.2025 37.3266 93.5819 37.546C93.8468 37.6986 94.0826 37.8957 94.2761 38.1289C94.2856 38.14 94.295 38.1512 94.3036 38.1623C94.4705 38.3689 94.6056 38.6012 94.702 38.8532C94.8129 39.1386 94.8732 39.4489 94.8732 39.7729Z" fill="white"/>
<path d="M100.132 25.9999C100.132 29.9968 98.8175 33.6945 96.5971 36.685C96.2891 37.0999 95.68 37.1402 95.3135 36.775L95.3015 36.763C95.0038 36.4665 94.9685 35.9976 95.218 35.6599C97.2242 32.9565 98.4114 29.6136 98.4114 25.9999C98.4114 22.1257 97.047 18.5625 94.7715 15.7648C94.048 14.8751 93.2316 14.0617 92.3386 13.3408C89.5307 11.0737 85.9544 9.71428 82.0659 9.71428C79.2752 9.71428 76.6453 10.4154 74.344 11.6497C74.3793 11.8186 74.3982 11.9943 74.3982 12.1734C74.3982 13.1908 73.8046 14.0711 72.9435 14.4868C72.6036 14.6523 72.2208 14.7448 71.8173 14.7448C71.3674 14.7448 70.9442 14.63 70.5759 14.4277C70.3342 14.2957 70.1157 14.126 69.929 13.9254C69.9032 13.8988 69.8783 13.8705 69.8542 13.8414C69.6778 13.6365 69.5333 13.4025 69.4292 13.148C69.3044 12.8471 69.2365 12.518 69.2365 12.1734C69.2365 11.7714 69.3294 11.39 69.4954 11.0514C69.9127 10.1934 70.7962 9.60199 71.8173 9.60199C72.4367 9.60199 73.0054 9.81971 73.4502 10.1823C76.013 8.79114 78.9483 8 82.0659 8C86.4285 8 90.4348 9.54799 93.5602 12.1237C94.4463 12.8523 95.261 13.6648 95.9931 14.5477C98.5774 17.6617 100.132 21.6534 100.132 25.9999Z" fill="white"/>
<path d="M91.3244 24.04C91.4603 24.6725 91.5308 25.3291 91.5308 26.0011C91.5308 27.9828 90.9149 29.8231 89.8619 31.3428C89.2063 32.2908 88.3805 33.1136 87.429 33.7668C85.9037 34.8159 84.0567 35.4296 82.0677 35.4296C80.4856 35.4296 78.993 35.0405 77.6819 34.3548C77.1718 34.0873 77.0746 33.3999 77.4815 32.9945L77.4823 32.9936C77.7507 32.7262 78.1611 32.6705 78.4983 32.8454C79.5668 33.4008 80.7807 33.7154 82.0677 33.7154C83.5809 33.7154 84.9935 33.2808 86.1876 32.5299C87.1692 31.9136 88.0019 31.0839 88.6205 30.1059C89.3741 28.9162 89.8103 27.5088 89.8103 26.0011C89.8103 25.5237 89.7664 25.0557 89.6821 24.6022C88.6652 24.5911 87.7894 23.9928 87.3808 23.1314C87.2208 22.798 87.1322 22.4251 87.1322 22.0317C87.1322 21.496 87.2965 20.9988 87.5778 20.5874C87.749 20.3363 87.9641 20.116 88.2118 19.9411C88.2376 19.9214 88.2635 19.9034 88.2893 19.8871C88.5 19.7474 88.7306 19.6394 88.9784 19.5666C89.2115 19.4971 89.4575 19.4603 89.713 19.4603C90.1079 19.4603 90.4821 19.5486 90.8168 19.708C91.69 20.1194 92.2939 21.0048 92.2939 22.0317C92.2939 22.8443 91.9154 23.5685 91.3244 24.04Z" fill="white"/>
<path d="M86.6526 19.0057L86.6518 19.0065C86.3834 19.274 85.973 19.3297 85.6358 19.1548C84.5673 18.5994 83.3534 18.2848 82.0664 18.2848C80.5532 18.2848 79.1406 18.7194 77.9465 19.4703C76.9658 20.0874 76.133 20.9171 75.5136 21.8943C74.76 23.084 74.3238 24.4914 74.3238 25.9991C74.3238 26.4577 74.3643 26.9077 74.4426 27.3448C74.4563 27.344 74.471 27.344 74.4847 27.344C75.5119 27.344 76.3989 27.9414 76.8144 28.8079C76.9752 29.1431 77.0656 29.5185 77.0656 29.9154C77.0656 30.4811 76.8823 31.0039 76.5709 31.4282C76.3868 31.6802 76.158 31.8971 75.8956 32.0677C75.8749 32.0822 75.8543 32.0951 75.8319 32.1088C75.8096 32.1225 75.7872 32.1354 75.764 32.1482C75.7631 32.1491 75.7631 32.1491 75.7622 32.1491C75.5661 32.2614 75.3536 32.3488 75.1291 32.4054C74.9235 32.4585 74.7075 32.4868 74.4847 32.4868C74.0864 32.4868 73.7096 32.3968 73.3732 32.2365C72.5035 31.8225 71.9039 30.9388 71.9039 29.9154C71.9039 29.1319 72.2549 28.4308 72.8097 27.9602C72.6747 27.3277 72.6033 26.6711 72.6033 25.9991C72.6033 24.0174 73.2201 22.1771 74.2731 20.6583C74.9286 19.7103 75.7545 18.8874 76.706 18.2343C78.2304 17.1851 80.0774 16.5706 82.0664 16.5706C83.6476 16.5706 85.1402 16.9597 86.4522 17.6463C86.9615 17.9137 87.0595 18.6003 86.6526 19.0057Z" fill="white"/>
<path d="M111.179 31.7937C110.64 31.7937 110.118 31.6965 109.613 31.5023C109.109 31.2965 108.661 31.0051 108.271 30.628C107.893 30.2508 107.589 29.788 107.359 29.2394C107.13 28.6794 107.015 28.0451 107.015 27.3365C107.015 26.628 107.13 25.9994 107.359 25.4508C107.589 24.8908 107.893 24.4222 108.271 24.0451C108.661 23.6679 109.109 23.3822 109.613 23.1879C110.118 22.9822 110.64 22.8794 111.179 22.8794C111.718 22.8794 112.234 22.9822 112.728 23.1879C113.232 23.3822 113.674 23.6679 114.053 24.0451C114.443 24.4222 114.752 24.8908 114.982 25.4508C115.211 25.9994 115.326 26.628 115.326 27.3365C115.326 28.0451 115.211 28.6794 114.982 29.2394C114.752 29.788 114.443 30.2508 114.053 30.628C113.674 31.0051 113.232 31.2965 112.728 31.5023C112.234 31.6965 111.718 31.7937 111.179 31.7937ZM111.179 29.7537C111.695 29.7537 112.085 29.5365 112.349 29.1022C112.613 28.668 112.745 28.0794 112.745 27.3365C112.745 26.5937 112.613 26.0051 112.349 25.5708C112.085 25.1365 111.695 24.9194 111.179 24.9194C110.651 24.9194 110.256 25.1365 109.992 25.5708C109.74 26.0051 109.613 26.5937 109.613 27.3365C109.613 28.0794 109.74 28.668 109.992 29.1022C110.256 29.5365 110.651 29.7537 111.179 29.7537Z" fill="white"/>
<path d="M117.058 31.588V23.0851H119.123L119.295 24.1651H119.364C119.731 23.8222 120.132 23.5251 120.568 23.2737C121.004 23.0108 121.514 22.8794 122.099 22.8794C123.029 22.8794 123.7 23.1822 124.113 23.7879C124.537 24.3937 124.749 25.2337 124.749 26.308V31.588H122.22V26.6337C122.22 26.0165 122.134 25.5937 121.962 25.3651C121.801 25.1365 121.537 25.0222 121.17 25.0222C120.849 25.0222 120.574 25.0965 120.344 25.2451C120.115 25.3822 119.863 25.5822 119.587 25.8451V31.588H117.058Z" fill="white"/>
<path d="M130.724 31.7937C130.116 31.7937 129.548 31.6965 129.021 31.5023C128.493 31.2965 128.034 31.0051 127.644 30.628C127.254 30.2394 126.95 29.7708 126.732 29.2222C126.514 28.6737 126.406 28.0451 126.406 27.3365C126.406 26.6508 126.52 26.0337 126.75 25.4851C126.979 24.9251 127.277 24.4565 127.644 24.0794C128.023 23.6908 128.453 23.3937 128.935 23.1879C129.417 22.9822 129.916 22.8794 130.432 22.8794C131.04 22.8794 131.567 22.9822 132.015 23.1879C132.473 23.3937 132.852 23.6794 133.15 24.0451C133.46 24.4108 133.689 24.8451 133.838 25.3479C133.988 25.8394 134.062 26.3765 134.062 26.9594C134.062 27.188 134.051 27.4051 134.028 27.6108C134.005 27.8165 133.982 27.9708 133.959 28.0737H128.849C128.963 28.6908 129.216 29.148 129.606 29.4451C130.007 29.7308 130.495 29.8737 131.068 29.8737C131.676 29.8737 132.29 29.6851 132.909 29.308L133.752 30.8337C133.317 31.1308 132.829 31.3651 132.29 31.5365C131.762 31.708 131.24 31.7937 130.724 31.7937ZM128.832 26.4108H131.911C131.911 25.9308 131.802 25.5422 131.584 25.2451C131.367 24.9479 130.999 24.7994 130.483 24.7994C130.082 24.7994 129.726 24.9308 129.417 25.1937C129.118 25.4565 128.923 25.8622 128.832 26.4108Z" fill="white"/>
<path d="M139.104 31.7937C138.37 31.7937 137.636 31.6623 136.902 31.3994C136.179 31.1251 135.531 30.7194 134.958 30.1822L136.403 28.4508C136.804 28.7937 137.246 29.0737 137.728 29.2908C138.221 29.508 138.703 29.6165 139.173 29.6165C139.701 29.6165 140.091 29.5194 140.343 29.3251C140.607 29.1308 140.739 28.868 140.739 28.5365C140.739 28.3651 140.699 28.2165 140.618 28.0908C140.55 27.9651 140.441 27.8565 140.291 27.7651C140.154 27.6622 139.982 27.5708 139.775 27.4908C139.58 27.3994 139.362 27.3022 139.121 27.1994L137.659 26.5822C137.372 26.468 137.091 26.3194 136.816 26.1365C136.552 25.9537 136.311 25.7422 136.093 25.5022C135.887 25.2508 135.72 24.9651 135.594 24.6451C135.468 24.3137 135.405 23.9422 135.405 23.5308C135.405 23.0737 135.502 22.6451 135.697 22.2451C135.892 21.8337 136.168 21.4794 136.523 21.1822C136.879 20.8737 137.298 20.6337 137.779 20.4622C138.273 20.2908 138.812 20.2051 139.397 20.2051C140.051 20.2051 140.693 20.3308 141.324 20.5822C141.966 20.8337 142.528 21.1994 143.01 21.6794L141.72 23.2737C141.352 22.9879 140.985 22.7708 140.618 22.6222C140.251 22.4622 139.844 22.3822 139.397 22.3822C138.961 22.3822 138.611 22.4737 138.347 22.6565C138.095 22.8279 137.969 23.0737 137.969 23.3937C137.969 23.5651 138.009 23.7137 138.089 23.8394C138.181 23.9537 138.301 24.0622 138.45 24.1651C138.611 24.2565 138.795 24.3479 139.001 24.4394C139.207 24.5194 139.431 24.6108 139.672 24.7137L141.117 25.2965C141.806 25.5708 142.345 25.948 142.735 26.428C143.136 26.908 143.337 27.5422 143.337 28.3308C143.337 28.7994 143.239 29.2451 143.044 29.668C142.861 30.0794 142.586 30.4451 142.219 30.7651C141.863 31.0737 141.421 31.3251 140.894 31.5194C140.366 31.7023 139.77 31.7937 139.104 31.7937Z" fill="white"/>
<path d="M145.241 31.588V20.4108H148.011L149.818 25.3822C149.932 25.7137 150.041 26.0565 150.145 26.4108C150.248 26.7537 150.357 27.0965 150.472 27.4394H150.54C150.655 27.0965 150.758 26.7537 150.85 26.4108C150.953 26.0565 151.062 25.7137 151.177 25.3822L152.949 20.4108H155.702V31.588H153.397V27.4908C153.397 27.2165 153.408 26.9137 153.431 26.5822C153.454 26.2508 153.483 25.9194 153.517 25.5879C153.551 25.2451 153.586 24.9137 153.62 24.5937C153.655 24.2622 153.689 23.9594 153.723 23.6851H153.655L152.743 26.3422L151.143 30.6108H149.749L148.149 26.3422L147.254 23.6851H147.185C147.22 23.9594 147.254 24.2622 147.288 24.5937C147.323 24.9137 147.357 25.2451 147.392 25.5879C147.426 25.9194 147.455 26.2508 147.478 26.5822C147.501 26.9137 147.512 27.2165 147.512 27.4908V31.588H145.241Z" fill="white"/>
<path d="M158.347 31.588V20.4108H165.367V22.5365H160.876V24.7822H164.696V26.8908H160.876V29.4622H165.539V31.588H158.347Z" fill="white"/>
</svg>
