<svg width="270" height="270" viewBox="0 0 270 270" fill="none" xmlns="http://www.w3.org/2000/svg">
<rect width="270" height="270" rx="16" fill="#F4F5FA"/>
<path d="M127.124 122.8V148H121.292V127.48H116.252V122.8H127.124ZM134.814 135.364C133.83 135.364 133.002 135.028 132.33 134.356C131.658 133.684 131.322 132.844 131.322 131.836C131.322 130.804 131.658 129.976 132.33 129.352C133.002 128.704 133.83 128.38 134.814 128.38C135.798 128.38 136.626 128.704 137.298 129.352C137.97 129.976 138.306 130.804 138.306 131.836C138.306 132.844 137.97 133.684 137.298 134.356C136.626 135.028 135.798 135.364 134.814 135.364ZM134.814 148.288C133.83 148.288 133.002 147.952 132.33 147.28C131.658 146.608 131.322 145.768 131.322 144.76C131.322 143.728 131.658 142.9 132.33 142.276C133.002 141.628 133.83 141.304 134.814 141.304C135.798 141.304 136.626 141.628 137.298 142.276C137.97 142.9 138.306 143.728 138.306 144.76C138.306 145.768 137.97 146.608 137.298 147.28C136.626 147.952 135.798 148.288 134.814 148.288ZM150.644 122.8V148H144.812V127.48H139.772V122.8H150.644Z" fill="#EAECF4"/>
</svg>
